<?xml version="1.0" encoding="UTF-8"?>
<svg xmlns="http://www.w3.org/2000/svg" width="64" height="64" viewBox="0 0 64 64" fill="none">
  <path d="M48.845 6.247c1.214 5.201.182 11.616-2.371 16.257-.95 1.412-1.977 2.742-3.049 4.063l-.694.906c-3.932 5.178-10.451 7.291-16.547 8.497l-2.188.445-5.422 1.088-5.223 1.085-2.746.543C2.721 40.724-4.678 44.043-9.64 50.58c-1.265 1.934-2.309 4.002-3.344 6.065-1.734-1.156-2.069-3.175-2.715-5.094l-.507-1.926c-2.131-7.365-.796-15.738 2.707-22.433a24.929 24.929 0 0 1 2.715-3.733l.807-1.101c2.026-2.171 4.281-3.763 6.912-5.112l.625-.328c4.804-2.355 10.451-3.11 15.639-4.22l2.713-.582 7.595-1.52 6.24-1.348 5.69-1.22 4.31-.926 2.476-.528 2.349-.505c.965-.15 1.772-.171 2.64-.037Z" fill="#059F70" transform="translate(22.5 1.5) scale(.75)"/>
  <path d="M0 0c2.129 1.72 3.005 3.483 3.425 6.185.063 1.125.076 2.249.085 3.376l.009 2.891c.004 2.373.012 4.746.022 7.119.061 4.52.072 8.318-2.153 12.347-3.307 3.038-6.857 3.079-11.104 2.926-2.534-.154-4.217-1.161-6.144-2.748-1.915-2.531-2.282-5.3-2.256-8.39l-.004-1.108-.002-2.31c.007-3.342-.001-6.683-.01-10.025 0-.699-.002-1.397-.004-2.096l-.003-1.592c.037-2.751.813-4.712 2.197-7.059C-12.158-2.414-5.084-2.537 0 0Zm-8.9 4.748c-.671 1.556-.627 2.958-.616 4.636v1.412l.006 3.92-.006 5.435v1.778l-.005 1.468c.019 1.723.073 2.93 1.218 4.318.67.413.67.413 1.426.357.78-.407.78-.407 1.427-1.072.21-.802.21-.802.174-1.712l.006-1.41-.015-1.83v-5.13l-.012-3.283V8.35l-.004-1.063c-.048-.886-.048-.886-.809-1.851-.786-.213-1.387-.313-2.796.312Z" fill="#059F70" transform="translate(36.5 33) scale(.5)"/>
  <path d="M0 0c1.904 1.509 3.05 3.302 3.879 5.581v1.074c-1.89.827-3.78 1.654-5.728 2.507-1.791-2.777-1.791-2.777-1.791-3.583l-3.582-.358c-.517 1.4-.517 1.4.172 2.45 1.014 1.386 2.299 2.45 3.61 3.546l.701.6c.886.753 1.772 1.504 2.683 2.23 1.136.91 1.994 1.788 2.777 3.016l.54.833c1.12 1.95.996 4.044.802 6.16-.618 2.248-2.066 3.864-4.01 5.105-1.918.98-3.435 1.283-5.578 1.252l-.818-.01c-3.025-.094-5.183-.831-7.426-2.913-1.262-1.363-2.725-3.145-2.725-5.09l2.788-1.312.64-.379c1.878-.898 1.878-.898 3.07-.5.457.634.457.634.892 1.406.612 1.081.89 1.448 1.963 2.163.833.028 1.667.031 2.5 0 .15-.996.15-.996 0-2.143-.792-.895-.792-.895-1.785-1.785l-.933-.868-.967-.892-1.042-.95c-.822-.733-1.66-1.437-2.51-2.14-1.89-1.639-3.638-3.847-3.869-6.408-.07-2.84.203-4.707 2.114-6.846C-9.64-2.144-4.17-2.749 0 0Z" fill="#1A1C3C" transform="translate(32.5 31.5) scale(.25)"/>
</svg>
