<?xml version="1.0" encoding="UTF-8"?>
<svg version="1.1" xmlns="http://www.w3.org/2000/svg" width="502" height="190">
<path d="M0 0 C3.58646807 15.35818182 0.5406606 34.29308493 -7 48 C-9.80413629 52.17051542 -12.83708699 56.09732649 -16 60 C-16.44214844 60.59554687 -16.88429687 61.19109375 -17.33984375 61.8046875 C-28.93910428 77.07773517 -48.16377014 83.30918527 -66.14324379 86.86283684 C-68.29626278 87.2888155 -70.44675346 87.72601269 -72.5969696 88.16590881 C-77.93594862 89.2560762 -83.27821569 90.32969658 -88.62121582 91.39996338 C-93.15071621 92.30752121 -97.67835372 93.22348291 -102.20384789 94.15081978 C-104.29462686 94.57588596 -106.38752557 94.98897272 -108.48078918 95.40159607 C-131.68709063 100.08785371 -153.50791342 109.87743176 -168.14453125 129.1640625 C-171.8733463 134.86326192 -174.95054671 140.91731391 -178 147 C-183.10924172 143.59383885 -184.09729515 137.65269597 -186 132 C-186.48919922 130.59621094 -186.48919922 130.59621094 -186.98828125 129.1640625 C-193.26745511 107.43990649 -189.33254928 82.74297173 -179 63 C-176.53685879 59.15285411 -173.85575509 55.56221022 -171 52 C-170.21625 50.948125 -169.4325 49.89625 -168.625 48.8125 C-162.65284888 42.41376666 -156.00533971 37.72474056 -148.25 33.75 C-147.64373779 33.43305176 -147.03747559 33.11610352 -146.4128418 32.78955078 C-132.24792626 25.8447138 -115.60233992 23.61608556 -100.31172252 20.34426785 C-97.65175037 19.77447967 -94.99244074 19.20163259 -92.33312517 18.62878919 C-86.06355695 17.27827342 -79.79299546 15.9324476 -73.52172852 14.58984375 C-67.06505971 13.20747865 -60.60997065 11.81791401 -54.15562528 10.42474437 C-48.58923879 9.223454 -43.02200265 8.02616414 -37.45404536 6.83217549 C-34.13870727 6.12122338 -30.82368637 5.40887397 -27.50944328 4.69283295 C-23.82496366 3.89801486 -20.13913941 3.10976237 -16.45288086 2.32324219 C-15.36141251 2.08640717 -14.26994415 1.84957214 -13.145401 1.6055603 C-12.14064728 1.39257294 -11.13589355 1.17958557 -10.10069275 0.96014404 C-9.23118957 0.77360638 -8.36168638 0.58706871 -7.46583462 0.39487839 C-4.93488055 -0.01042822 -2.55866013 -0.07039344 0 0 Z " fill="#059F70" transform="translate(189,0)"/>
<path d="M0 0 C5.99818351 4.84216996 8.46473055 9.81187007 9.6484375 17.421875 C9.82457617 20.59046331 9.86009179 23.75670492 9.88671875 26.9296875 C9.8947905 27.85095428 9.90286224 28.77222107 9.91117859 29.72140503 C9.92498292 31.66971985 9.93572133 33.61805847 9.94360352 35.56640625 C9.95509745 37.54271621 9.97550804 39.51899576 10.00512695 41.49511719 C10.18534667 53.5325864 10.21832093 63.63614767 3.9609375 74.296875 C-5.3373229 82.84122239 -15.31873151 82.95535642 -27.25830078 82.54931641 C-34.38271275 82.11556984 -39.11293623 79.2851457 -44.52734375 74.82421875 C-49.92421928 67.71698438 -50.95528445 59.94460615 -50.8828125 51.26171875 C-50.8866394 50.23180313 -50.89046631 49.20188751 -50.89440918 48.14076233 C-50.89711351 45.97851576 -50.88985685 43.81623565 -50.87304688 41.65405273 C-50.85159477 38.36432344 -50.8729115 35.07677228 -50.8984375 31.78710938 C-50.89579439 29.6744744 -50.89066976 27.56184077 -50.8828125 25.44921875 C-50.89090942 24.47709946 -50.89900635 23.50498016 -50.90734863 22.50340271 C-50.80231667 14.77268927 -48.6210049 9.26246984 -44.7265625 2.671875 C-33.0020937 -8.4355165 -13.08452449 -8.78097657 0 0 Z M-25.01806641 13.33203125 C-26.90508992 17.70445336 -26.78108926 21.64453169 -26.75 26.359375 C-26.75287018 27.31706787 -26.75574036 28.27476074 -26.75869751 29.26147461 C-26.7607349 31.28206983 -26.75522783 33.30268492 -26.74267578 35.32324219 C-26.72661771 38.41125709 -26.74253573 41.49796318 -26.76171875 44.5859375 C-26.75973626 46.55208621 -26.75589247 48.51823412 -26.75 50.484375 C-26.75607269 51.40532959 -26.76214539 52.32628418 -26.7684021 53.27514648 C-26.71540532 58.11946985 -26.56147783 61.51773815 -23.3515625 65.421875 C-21.47199006 66.5795335 -21.47199006 66.5795335 -19.3515625 66.421875 C-17.16696806 65.2816159 -17.16696806 65.2816159 -15.3515625 63.421875 C-14.7611968 61.17580887 -14.7611968 61.17580887 -14.86572266 58.63085938 C-14.8595694 57.6597522 -14.85341614 56.68864502 -14.84707642 55.68811035 C-14.86144745 54.64119019 -14.87581848 53.59427002 -14.890625 52.515625 C-14.89154144 51.43937866 -14.89245789 50.36313232 -14.8934021 49.25427246 C-14.8994464 46.97790113 -14.91521706 44.70153805 -14.93994141 42.42529297 C-14.97641929 38.93557519 -14.98096105 35.44691964 -14.98046875 31.95703125 C-14.9903007 29.74738663 -15.00195803 27.53774923 -15.015625 25.328125 C-15.01785065 24.28120483 -15.02007629 23.23428467 -15.02236938 22.15563965 C-15.03512909 21.18453247 -15.04788879 20.21342529 -15.06103516 19.21289062 C-15.06865875 18.35812134 -15.07628235 17.50335205 -15.08413696 16.62268066 C-15.21908812 14.13277942 -15.21908812 14.13277942 -17.3515625 11.421875 C-20.88909269 10.8197422 -22.58087158 10.53850468 -25.01806641 13.33203125 Z " fill="#1A1C3C" transform="translate(454.3515625,102.578125)"/>
<path d="M0 0 C17.16 0 34.32 0 52 0 C52 5.94 52 11.88 52 18 C43.75 18 35.5 18 27 18 C27 27.57 27 37.14 27 47 C34.26 47 41.52 47 49 47 C49 53.27 49 59.54 49 66 C41.74 66 34.48 66 27 66 C27 83.49 27 100.98 27 119 C18.09 119 9.18 119 0 119 C0 79.73 0 40.46 0 0 Z " fill="#1A1C3C" transform="translate(191,65)"/>
<path d="M0 0 C8.25 0 16.5 0 25 0 C25 8.25 25 16.5 25 25 C28.96 25 32.92 25 37 25 C37 30.61 37 36.22 37 42 C33.04 42 29.08 42 25 42 C25.09345828 48.35402308 25.1995354 54.70766167 25.31738281 61.0612793 C25.35569804 63.22332973 25.3905464 65.38544447 25.421875 67.54760742 C25.46747017 70.65306604 25.52547384 73.75808099 25.5859375 76.86328125 C25.59748871 77.83211746 25.60903992 78.80095367 25.62094116 79.79914856 C25.64081085 80.6998558 25.66068054 81.60056305 25.68115234 82.52856445 C25.69447601 83.32132278 25.70779968 84.11408112 25.7215271 84.93086243 C25.88713582 87.30603108 25.88713582 87.30603108 28 90 C31.75368558 90.76463965 35.16674876 91 39 91 C39 97.6 39 104.2 39 111 C28.08324973 112.36459378 17.78659283 113.52380781 7.75 108.3125 C2.76140892 104.11754841 0.73933175 99.47241923 0 93 C-0.1295492 89.08525532 -0.11629383 85.17432194 -0.09765625 81.2578125 C-0.0962413 80.13430389 -0.09482635 79.01079529 -0.09336853 77.85324097 C-0.08778664 74.27713317 -0.07523741 70.70108877 -0.0625 67.125 C-0.05748266 64.69531341 -0.05292016 62.26562583 -0.04882812 59.8359375 C-0.03782314 53.89060349 -0.02110301 47.94530628 0 42 C-2.64 42 -5.28 42 -8 42 C-8 36.39 -8 30.78 -8 25 C-5.36 25 -2.72 25 0 25 C0 16.75 0 8.5 0 0 Z " fill="#1A1C3C" transform="translate(294,73)"/>
<path d="M0 0 C6.67428674 5.13751819 11.4749818 12.57144742 13.32421875 20.7890625 C14.24176877 30.08753336 13.9395274 38.42683079 9.32421875 46.7890625 C8.76734375 47.8203125 8.21046875 48.8515625 7.63671875 49.9140625 C1.53141789 57.50443654 -5.62512071 63.88194582 -15.6171875 65.0078125 C-27.61812268 65.89185929 -37.29076331 64.21172822 -46.86328125 56.47265625 C-53.83437678 49.99734984 -57.92741366 42.05855018 -59.05859375 32.58203125 C-59.48353623 20.64114744 -55.55977852 11.06231066 -47.61328125 2.2265625 C-34.25606285 -10.7844645 -14.78406589 -9.42281123 0 0 Z M-23.67578125 7.7890625 C-25.10573906 9.62249389 -26.46958417 11.50771407 -27.80078125 13.4140625 C-31.50266253 18.56168461 -35.30630439 22.41188022 -40.67578125 25.7890625 C-41.66578125 26.4490625 -42.65578125 27.1090625 -43.67578125 27.7890625 C-43.67578125 28.7790625 -43.67578125 29.7690625 -43.67578125 30.7890625 C-42.84046875 31.17384766 -42.84046875 31.17384766 -41.98828125 31.56640625 C-33.61308883 35.76814975 -27.26036625 42.05163655 -23.67578125 50.7890625 C-19.86533673 49.51891433 -19.39067348 48.12179886 -17.23828125 44.7890625 C-12.64936727 38.22734438 -7.2505959 34.22706239 -0.67578125 29.7890625 C-2.91382293 27.47401294 -4.90923224 25.63508419 -7.61328125 23.8515625 C-13.33941939 19.99518376 -16.76167541 15.37572973 -20.34375 9.58203125 C-20.78332031 8.99035156 -21.22289063 8.39867187 -21.67578125 7.7890625 C-22.33578125 7.7890625 -22.99578125 7.7890625 -23.67578125 7.7890625 Z " fill="#059F70" transform="translate(91.67578125,125.2109375)"/>
<path d="M0 0 C5.32259523 4.21828108 8.52355335 9.22395139 10.83984375 15.59375 C10.83984375 16.58375 10.83984375 17.57375 10.83984375 18.59375 C5.55984375 20.90375 0.27984375 23.21375 -5.16015625 25.59375 C-10.16015625 17.84375 -10.16015625 17.84375 -10.16015625 15.59375 C-13.13015625 15.26375 -16.10015625 14.93375 -19.16015625 14.59375 C-20.60654778 18.5015892 -20.60654778 18.5015892 -18.68359375 21.43359375 C-15.90223764 25.23318882 -12.38012827 28.15218381 -8.78515625 31.15625 C-8.13804687 31.70732422 -7.4909375 32.25839844 -6.82421875 32.82617188 C-4.39166677 34.89335063 -1.95965744 36.95654146 0.53686523 38.94628906 C3.65196031 41.44378184 6.00645274 43.85241962 8.15234375 47.21875 C8.64347656 47.97414062 9.13460937 48.72953125 9.640625 49.5078125 C12.71296176 54.8518771 12.37203519 60.61039764 11.83984375 66.59375 C10.14290674 72.75792479 6.17279912 77.18909487 0.83984375 80.59375 C-4.42568519 83.28416625 -8.5891361 84.11637384 -14.47265625 84.03125 C-15.2195874 84.02222656 -15.96651855 84.01320313 -16.73608398 84.00390625 C-25.21005881 83.73935289 -31.25695431 81.67432877 -37.53515625 75.84375 C-41.06819553 72.02463467 -45.16015625 67.0350503 -45.16015625 61.59375 C-42.72797566 60.39411357 -40.29045047 59.20890562 -37.84765625 58.03125 C-37.15736328 57.68900391 -36.46707031 57.34675781 -35.75585938 56.99414062 C-30.5 54.48046875 -30.5 54.48046875 -27.16015625 55.59375 C-25.87890625 57.37109375 -25.87890625 57.37109375 -24.66015625 59.53125 C-22.94476651 62.56067226 -22.16780742 63.58864922 -19.16015625 65.59375 C-16.82816237 65.67280064 -14.49183003 65.68173769 -12.16015625 65.59375 C-11.74125407 62.80436788 -11.74125407 62.80436788 -12.16015625 59.59375 C-14.3794696 57.0870116 -14.3794696 57.0870116 -17.16015625 54.59375 C-18.02253906 53.79195312 -18.88492187 52.99015625 -19.7734375 52.1640625 C-20.66417969 51.35710937 -21.55492187 50.55015625 -22.47265625 49.71875 C-23.43171875 48.84605469 -24.39078125 47.97335938 -25.37890625 47.07421875 C-27.70344765 45.00106736 -30.07088726 43.01270942 -32.47265625 41.03125 C-37.81096687 36.40691096 -42.74599428 30.17668981 -43.3984375 22.95703125 C-43.59308412 14.95603078 -42.82300055 9.69481269 -37.4296875 3.65625 C-27.31551782 -6.03397245 -11.89010456 -7.74039356 0 0 Z " fill="#1A1C3C" transform="translate(384.16015625,101.40625)"/>
<path d="M0 0 C8.25 0 16.5 0 25 0 C25 39.27 25 78.54 25 119 C16.75 119 8.5 119 0 119 C0 79.73 0 40.46 0 0 Z " fill="#1A1C3C" transform="translate(477,65)"/>
<path d="M0 0 C8.25 0 16.5 0 25 0 C25 28.38 25 56.76 25 86 C16.75 86 8.5 86 0 86 C0 57.62 0 29.24 0 0 Z " fill="#1A1C3C" transform="translate(253,98)"/>
<path d="M0 0 C8.25 0 16.5 0 25 0 C25 5.61 25 11.22 25 17 C16.75 17 8.5 17 0 17 C0 11.39 0 5.78 0 0 Z " fill="#1A1B3C" transform="translate(253,68)"/>
</svg>
